<?xml version="1.0" encoding="UTF-8" standalone="no"?>
<svg
   xmlns:dc="http://purl.org/dc/elements/1.1/"
   xmlns:cc="http://creativecommons.org/ns#"
   xmlns:rdf="http://www.w3.org/1999/02/22-rdf-syntax-ns#"
   xmlns:svg="http://www.w3.org/2000/svg"
   xmlns="http://www.w3.org/2000/svg"
   xmlns:sodipodi="http://sodipodi.sourceforge.net/DTD/sodipodi-0.dtd"
   xmlns:inkscape="http://www.inkscape.org/namespaces/inkscape"
   viewBox="0 0 128 128"
   id="svg2890"
   version="1.1"
   inkscape:version="0.47 r22583"
   width="100%"
   height="100%"
   sodipodi:docname="implosion.svg">
  <metadata
     id="metadata2900">
    <rdf:RDF>
      <cc:Work
         rdf:about="">
        <dc:format>image/svg+xml</dc:format>
        <dc:type
           rdf:resource="http://purl.org/dc/dcmitype/StillImage" />
        <dc:title></dc:title>
      </cc:Work>
    </rdf:RDF>
  </metadata>
  <defs
     id="defs2898">
    <inkscape:perspective
       sodipodi:type="inkscape:persp3d"
       inkscape:vp_x="0 : 256 : 1"
       inkscape:vp_y="0 : 1000 : 0"
       inkscape:vp_z="512 : 256 : 1"
       inkscape:persp3d-origin="256 : 170.66667 : 1"
       id="perspective2902" />
  </defs>
  <sodipodi:namedview
     pagecolor="#ffffff"
     bordercolor="#666666"
     borderopacity="1"
     objecttolerance="10"
     gridtolerance="10"
     guidetolerance="10"
     inkscape:pageopacity="0"
     inkscape:pageshadow="2"
     inkscape:window-width="1440"
     inkscape:window-height="849"
     id="namedview2896"
     showgrid="false"
     inkscape:zoom="1.5735453"
     inkscape:cx="-37.692176"
     inkscape:cy="17.355932"
     inkscape:window-x="0"
     inkscape:window-y="25"
     inkscape:window-maximized="1"
     inkscape:current-layer="svg2890" />
  <path
     d="m 37.310798,10.578363 4.255969,8.690569 c -2.481127,2.053157 -4.063654,5.153425 -4.063654,8.626233 0,6.180459 5.005145,11.192454 11.185612,11.192454 0.838825,0 1.652106,-0.09582 2.438236,-0.271024 l 3.415088,6.972302 c 0.824004,-0.447135 1.676744,-0.847498 2.559148,-1.19083 L 55.0907,37.077114 c 2.896093,-2.023045 4.790703,-5.381558 4.790703,-9.182181 0,-5.854692 -4.495048,-10.659087 -10.223131,-11.149563 L 48.011633,10.578594 H 37.31103 z m 29.991636,0 -2.202813,32.501506 h 0.107221 c 0.944452,0 1.872932,0.05705 2.787048,0.171094 l 8.854358,-32.6726 h -9.545814 z m 32.800346,0 -20.352733,30.248961 c -0.778832,-0.290862 -1.622906,-0.449416 -2.502572,-0.449416 -3.947999,0 -7.15047,3.202927 -7.15047,7.150702 0,0.161971 0.01069,0.325311 0.02146,0.484769 -1.561769,-0.434587 -3.208633,-0.670243 -4.911608,-0.670243 -10.069602,0 -18.186426,8.116825 -18.186426,18.186427 0,10.069146 8.116824,18.185962 18.186426,18.185962 10.069146,0 18.185738,-8.116816 18.185738,-18.186419 0,-4.241372 -1.444058,-8.132788 -3.863816,-11.220741 2.829476,-0.952438 4.869181,-3.62953 4.869181,-6.779987 0,-1.473714 -0.440294,-2.847049 -1.204522,-3.985409 L 98.292367,28.436741 c 0.923007,3.152739 3.834383,5.453874 7.285973,5.453874 4.19392,0 7.59943,-3.398661 7.59943,-7.592581 0,-3.451586 -2.30639,-6.362964 -5.46095,-7.285978 l 8.43392,-8.433918 h -16.0475 z M 9.1227552,11.391419 v 16.04019 L 46.764003,52.753894 c 0.50644,-0.728643 1.052585,-1.426261 1.639326,-2.088742 L 9.1225312,11.391419 z M 117.30551,38.609915 84.804013,54.600371 c 0.567128,1.01175 1.06194,2.072322 1.468689,3.172359 L 117.30551,49.524503 V 38.609915 z m -92.192299,5.938187 c -4.194376,0 -7.599878,3.398667 -7.599878,7.592812 0,0.269192 0.01548,0.536103 0.04292,0.798453 L 9.1223282,50.66492 v 9.552895 l 33.8273888,2.345163 c 0.119312,-0.897688 0.290637,-1.78306 0.513289,-2.644698 l -12.22633,-3.293496 c 0.919814,-1.256992 1.468688,-2.807806 1.468688,-4.484102 0,-4.194369 -3.398428,-7.59258 -7.592124,-7.59258 z m 82.867769,13.189035 c -3.53212,0 -6.39513,2.863021 -6.39513,6.394452 0,1.422156 0.46264,2.738228 1.24786,3.799943 L 87.612963,66.876434 c -0.07164,1.206803 -0.235886,2.387598 -0.491851,3.535993 l 30.184628,8.155603 v -9.631141 l -4.76219,-0.328048 c 1.13198,-1.153644 1.83188,-2.732978 1.83188,-4.477027 0,-3.531432 -2.86302,-6.394445 -6.39445,-6.394445 z M 43.29895,70.426799 9.1225312,79.494918 V 90.060245 L 44.047901,73.021764 c -0.300224,-0.843617 -0.550707,-1.70868 -0.74872,-2.594965 z M 83.157605,78.996 c -0.711758,0.946053 -1.496527,1.829593 -2.345618,2.651997 L 117.30574,118.1413 V 101.96583 L 83.157149,78.996 z M 48.218095,80.179308 37.909413,90.45947 c -1.800624,-1.059658 -3.897809,-1.668305 -6.138031,-1.668305 -6.695581,0 -12.119342,5.430832 -12.119342,12.126415 0,2.22608 0.600889,4.31049 1.647088,6.10244 L 9.5290562,118.76181 H 25.826114 l 3.942069,-5.89576 c 0.65199,0.10836 1.320864,0.17109 2.003423,0.17109 5.717591,0 10.512856,-3.95643 11.791518,-9.28187 1.292121,0.81214 2.823778,1.283 4.462656,1.283 1.977192,0 3.791501,-0.68735 5.225516,-1.83188 l -4.170194,15.55519 h 9.495633 l 2.174069,-31.225124 c -1.050993,-0.212616 -2.072098,-0.50097 -3.065139,-0.855482 l -1.846477,6.88675 c -1.22596,-3.114641 -4.263043,-5.318365 -7.81364,-5.318365 -0.661569,0 -1.307173,0.07642 -1.924722,0.221285 l 4.156054,-6.209667 c -0.723857,-0.647429 -1.404135,-1.34664 -2.039016,-2.081669 z m 24.823368,6.387601 c -1.068782,0.399682 -2.169956,0.721343 -3.307868,0.955403 l 8.248228,31.239268 h 10.77155 l -1.910575,-3.92108 c 0.290406,0.0338 0.584924,0.0571 0.883996,0.0571 4.194152,0 7.592581,-3.40551 7.592581,-7.59943 0,-4.19392 -3.398661,-7.592127 -7.592805,-7.592127 -2.750095,0 -5.162555,1.461167 -6.494375,3.650067 L 73.040551,86.566909 z"
     id="path2894"
     style="fill:none;fill-opacity:1;stroke:#ffffff;stroke-opacity:1;stroke-width:2.89999999999999991;stroke-miterlimit:4;stroke-dasharray:none" />
</svg>
