<?xml version="1.0" encoding="UTF-8" standalone="no"?>
<svg
   xmlns:dc="http://purl.org/dc/elements/1.1/"
   xmlns:cc="http://creativecommons.org/ns#"
   xmlns:rdf="http://www.w3.org/1999/02/22-rdf-syntax-ns#"
   xmlns:svg="http://www.w3.org/2000/svg"
   xmlns="http://www.w3.org/2000/svg"
   xmlns:sodipodi="http://sodipodi.sourceforge.net/DTD/sodipodi-0.dtd"
   xmlns:inkscape="http://www.inkscape.org/namespaces/inkscape"
   id="svg2"
   sodipodi:docname="1420410744.svg"
   viewBox="0 0 168 156"
   version="1.1"
   inkscape:version="0.47 r22583"
   width="100%"
   height="100%">
  <defs
     id="defs4413">
    <inkscape:perspective
       sodipodi:type="inkscape:persp3d"
       inkscape:vp_x="0 : 78 : 1"
       inkscape:vp_y="0 : 1000 : 0"
       inkscape:vp_z="168 : 78 : 1"
       inkscape:persp3d-origin="84 : 52 : 1"
       id="perspective4415" />
  </defs>
  <sodipodi:namedview
     id="namedview8"
     bordercolor="#666666"
     inkscape:pageshadow="2"
     guidetolerance="10"
     pagecolor="#ffffff"
     gridtolerance="10"
     inkscape:window-maximized="0"
     inkscape:zoom="0.89702956"
     objecttolerance="10"
     borderopacity="1"
     inkscape:current-layer="svg2"
     inkscape:cx="143.13342"
     inkscape:cy="46.759575"
     inkscape:window-y="0"
     inkscape:window-x="0"
     inkscape:window-width="707"
     showgrid="false"
     inkscape:pageopacity="0"
     inkscape:window-height="485" />
  <path
     id="path4"
     inkscape:connector-curvature="0"
     d="m0 89c0-39.4 31.6-77 74-77 33.8 0 61 23.2 61 58 0 20.8-16.2 44-41 44-22 0-34-14-34-31-3.6 0-6 6-6 12 0 16.6 19.8 34 43 34 30.4 0 62-27.8 62-69 0-25.6-12.4-47-23-60 13 11 32 32.8 32 67 0 39.4-31.6 77-74 77-33.8 0-61-23.2-61-58 0-20.8 16.2-44 41-44 22 0 34 14 34 31 3.6 0 6-6 6-12 0-16.6-19.8-34-43-34-30.4 0-62 27.8-62 69 0 25.6 12.4 47 23 60-13-11-32-32.8-32-67z"
     style="fill:#ffffff;fill-opacity:1" />
  <metadata
     id="metadata6">
    <rdf:RDF>
      <cc:Work>
        <dc:format>image/svg+xml</dc:format>
        <dc:type
           rdf:resource="http://purl.org/dc/dcmitype/StillImage" />
        <cc:license
           rdf:resource="http://creativecommons.org/licenses/publicdomain/" />
        <dc:publisher>
          <cc:Agent
             rdf:about="http://openclipart.org/">
            <dc:title>Openclipart</dc:title>
          </cc:Agent>
        </dc:publisher>
        <dc:title></dc:title>
      </cc:Work>
      <cc:License
         rdf:about="http://creativecommons.org/licenses/publicdomain/">
        <cc:permits
           rdf:resource="http://creativecommons.org/ns#Reproduction" />
        <cc:permits
           rdf:resource="http://creativecommons.org/ns#Distribution" />
        <cc:permits
           rdf:resource="http://creativecommons.org/ns#DerivativeWorks" />
      </cc:License>
    </rdf:RDF>
  </metadata>
</svg>
