<?xml version="1.0" encoding="UTF-8" standalone="no"?>
<!-- Generator: Adobe Illustrator 15.0.0, SVG Export Plug-In . SVG Version: 6.00 Build 0)  -->

<svg
   xmlns:dc="http://purl.org/dc/elements/1.1/"
   xmlns:cc="http://creativecommons.org/ns#"
   xmlns:rdf="http://www.w3.org/1999/02/22-rdf-syntax-ns#"
   xmlns:svg="http://www.w3.org/2000/svg"
   xmlns="http://www.w3.org/2000/svg"
   xmlns:sodipodi="http://sodipodi.sourceforge.net/DTD/sodipodi-0.dtd"
   xmlns:inkscape="http://www.inkscape.org/namespaces/inkscape"
   version="1.1"
   id="Layer_1"
   x="0px"
   y="0px"
   width="26px"
   height="26px"
   viewBox="0 0 26 26"
   enable-background="new 0 0 26 26"
   xml:space="preserve"
   inkscape:version="0.47 r22583"
   sodipodi:docname="net.fxarena.openfx.Oilpaint.svg"
   inkscape:export-filename="/home/olear/Projects/opensource/openfx-arena/Oilpaint/net.fxarena.openfx.Oilpaint.png"
   inkscape:export-xdpi="443.07693"
   inkscape:export-ydpi="443.07693"><metadata
   id="metadata2876"><rdf:RDF><cc:Work
       rdf:about=""><dc:format>image/svg+xml</dc:format><dc:type
         rdf:resource="http://purl.org/dc/dcmitype/StillImage" /><dc:title></dc:title></cc:Work></rdf:RDF></metadata><defs
   id="defs2874"><inkscape:perspective
     sodipodi:type="inkscape:persp3d"
     inkscape:vp_x="0 : 13 : 1"
     inkscape:vp_y="0 : 1000 : 0"
     inkscape:vp_z="26 : 13 : 1"
     inkscape:persp3d-origin="13 : 8.6666667 : 1"
     id="perspective2878" /></defs><sodipodi:namedview
   pagecolor="#ffffff"
   bordercolor="#666666"
   borderopacity="1"
   objecttolerance="10"
   gridtolerance="10"
   guidetolerance="10"
   inkscape:pageopacity="0"
   inkscape:pageshadow="2"
   inkscape:window-width="1440"
   inkscape:window-height="849"
   id="namedview2872"
   showgrid="false"
   inkscape:zoom="9.0769231"
   inkscape:cx="-6.8855932"
   inkscape:cy="13"
   inkscape:window-x="0"
   inkscape:window-y="25"
   inkscape:window-maximized="1"
   inkscape:current-layer="Layer_1" />
<path
   d="M14.402,3.799L8.862,9.34L8.326,9.875l-2.091,2.091l0.029,0.03c-0.245,0.422-0.191,0.972,0.171,1.334  c0,0,0.902,1.684,1.845,2.627c0.942,0.941-1.96,1.578-3.104,2.723c-1.66,1.66-2.533,3.479-1.71,4.301  c0.824,0.824,2.641-0.049,4.301-1.709c1.145-1.145,1.841-3.986,2.708-3.121c0.867,0.867,2.627,1.846,2.627,1.846  c0.362,0.361,0.912,0.416,1.334,0.17l0.046,0.047l2.091-2.092l0.536-0.535l5.54-5.541L14.402,3.799z M13.352,5.611  c-0.028,0.029-0.058,0.058-0.049,0.042L13.352,5.611z M14.467,19.364l-7.382-7.383l1.673-1.673l7.383,7.383L14.467,19.364z   M20.75,12.059c-0.197-0.016-1.479-0.128-2.06,0.003c-1.178,0.265-1.691,0.256-1.98-1.541c-0.288-1.797-1.004-1.311-2.841-0.419  c-2.593,1.258-2.245-2.019-0.483-4.521l0.112-0.096l0.904-0.903l7.464,7.464l-0.272,0.272C21.594,12.319,20.947,12.074,20.75,12.059  z"
   id="path2870"
   style="fill:#ffffff;fill-opacity:1" />
</svg>