<?xml version="1.0" encoding="UTF-8" standalone="no"?>
<!-- Created with Inkscape (http://www.inkscape.org/) -->

<svg
   xmlns:dc="http://purl.org/dc/elements/1.1/"
   xmlns:cc="http://creativecommons.org/ns#"
   xmlns:rdf="http://www.w3.org/1999/02/22-rdf-syntax-ns#"
   xmlns:svg="http://www.w3.org/2000/svg"
   xmlns="http://www.w3.org/2000/svg"
   xmlns:sodipodi="http://sodipodi.sourceforge.net/DTD/sodipodi-0.dtd"
   xmlns:inkscape="http://www.inkscape.org/namespaces/inkscape"
   id="svg3066"
   version="1.1"
   inkscape:version="0.47 r22583"
   width="128"
   height="128"
   sodipodi:docname="logo.png">
  <metadata
     id="metadata3072">
    <rdf:RDF>
      <cc:Work
         rdf:about="">
        <dc:format>image/svg+xml</dc:format>
        <dc:type
           rdf:resource="http://purl.org/dc/dcmitype/StillImage" />
        <dc:title></dc:title>
      </cc:Work>
    </rdf:RDF>
  </metadata>
  <defs
     id="defs3070">
    <inkscape:perspective
       sodipodi:type="inkscape:persp3d"
       inkscape:vp_x="0 : 0.5 : 1"
       inkscape:vp_y="0 : 1000 : 0"
       inkscape:vp_z="1 : 0.5 : 1"
       inkscape:persp3d-origin="0.5 : 0.33333333 : 1"
       id="perspective3074" />
  </defs>
  <sodipodi:namedview
     pagecolor="#ffffff"
     bordercolor="#666666"
     borderopacity="1"
     objecttolerance="10"
     gridtolerance="10"
     guidetolerance="10"
     inkscape:pageopacity="0"
     inkscape:pageshadow="2"
     inkscape:window-width="1233"
     inkscape:window-height="763"
     id="namedview3068"
     showgrid="false"
     inkscape:zoom="1.84375"
     inkscape:cx="71.205176"
     inkscape:cy="69.245145"
     inkscape:window-x="549"
     inkscape:window-y="172"
     inkscape:window-maximized="0"
     inkscape:current-layer="svg3066" />
  <path
     id="path3086"
     d="M 111.3926,126.21942 C 110.23352,125.27374 100.67102,114.70594 90.142596,102.73543 69.647647,79.433279 68.520999,77.479001 73,73 c 4.488472,-4.488472 6.384042,-3.381761 30.22531,17.646761 12.25108,10.805719 22.88098,20.506809 23.622,21.557969 1.58982,2.25522 0.22289,6.72254 -3.25915,10.65137 -3.61374,4.07743 -9.37346,5.66586 -12.19556,3.36332 z M 51.785047,95.217822 C 50.97837,94.27302 47.503121,88.1 44.062271,81.5 40.621422,74.9 37.193086,68.859366 36.443745,68.076369 35.266535,66.846283 32.916133,66.968771 19.155264,68.977337 4.1045058,71.174179 0,71.219421 0,69.188478 0,68.707618 5.175,63.203359 11.5,56.956791 17.825,50.710224 23,44.804335 23,43.832594 23,42.860853 20.075,35.910075 16.5,28.38642 9.7696522,14.222276 8.9656382,11.334152 11.483869,10.367817 12.299996,10.054639 19.729752,12.993762 27.994437,16.899201 36.259122,20.804641 43.378774,24 43.815886,24 44.252999,24 49.716415,18.825 55.956813,12.5 62.19721,6.175 68.036668,1 68.933387,1 c 2.341957,0 2.353434,3.2883723 0.06291,18.023823 -3.003444,19.321821 -4.241921,16.774971 12.253703,25.198973 13.958024,7.128097 16.560462,9.366742 13.937778,11.989426 -0.549881,0.549881 -7.679582,2.09321 -15.843781,3.42962 -8.164198,1.336411 -15.43519,3.020974 -16.15776,3.743475 -0.926728,0.92664 -5.746867,25.398442 -6.17088,31.329499 -0.0084,0.118149 -0.858717,0.666169 -1.88949,1.217822 -1.418538,0.759179 -2.23068,0.585409 -3.34082,-0.714816 z"
     style="fill:#f6cf4c" />
  <path
     id="path3084"
     d="M 111.3926,126.21942 C 110.23352,125.27374 100.67102,114.70594 90.142596,102.73543 69.647647,79.433279 68.520999,77.479001 73,73 c 4.488472,-4.488472 6.384042,-3.381761 30.22531,17.646761 12.25108,10.805719 22.88098,20.506809 23.622,21.557969 1.58982,2.25522 0.22289,6.72254 -3.25915,10.65137 -3.61374,4.07743 -9.37346,5.66586 -12.19556,3.36332 z M 52.259411,94.75 C 51.717398,94.0625 48.025978,87.3125 44.056254,79.75 38.125978,68.452559 36.451644,66.006618 34.669288,66.037103 33.47618,66.05751 25.525,67.113234 17,68.383156 6.8840485,69.890073 1.2716191,70.342882 0.84252017,69.686736 0.07591128,68.514496 0.86272664,65.961556 1.8919764,66.281619 2.2782222,66.401728 7.4105372,62.006716 13.297121,56.514924 20.455859,49.836296 24,45.821238 24,44.389932 24,43.212979 21.075,36.079574 17.5,28.537921 11.029028,14.887062 9.8701245,11.012602 12.25,10.986059 c 0.6875,-0.0077 8.12855,3.231487 16.535666,7.198123 L 44.071332,25.396246 55.301313,14.198123 C 66.064977,3.4649946 69.984611,0.94775269 70.013123,4.75 c 0.0072,0.9625 -0.949047,8.141343 -2.125031,15.952984 -1.175984,7.811641 -1.875801,14.886662 -1.555148,15.72227 0.320652,0.835607 6.866138,4.666846 14.545524,8.513864 7.679386,3.847018 14.274088,7.498706 14.654894,8.114862 1.363124,2.205581 -1.631556,3.272214 -15.729429,5.602444 -7.867163,1.300359 -15.254305,2.771675 -16.415872,3.269589 -1.84366,0.7903 -2.389692,2.726182 -4.298467,15.239643 C 56.327579,95.272752 55.120844,98.379498 52.259411,94.75 z M 67.8125,1.316886 c 0.721875,-0.2888706 1.584375,-0.2533443 1.916667,0.078947 0.332291,0.3322917 -0.258334,0.5686404 -1.3125,0.5252193 -1.164943,-0.047984 -1.4019,-0.28494 -0.604167,-0.6041663 z"
     style="fill:#f6ca37" />
  <path
     id="path3082"
     d="M 111.3926,126.21942 C 110.23352,125.27374 100.67102,114.70594 90.142596,102.73543 69.647647,79.433279 68.520999,77.479001 73,73 c 4.488472,-4.488472 6.384042,-3.381761 30.22531,17.646761 12.25108,10.805719 22.88098,20.506809 23.622,21.557969 1.58982,2.25522 0.22289,6.72254 -3.25915,10.65137 -3.61374,4.07743 -9.37346,5.66586 -12.19556,3.36332 z"
     style="fill:#9e9ea0" />
  <path
     id="path3080"
     d="M 111.42765,125.24923 C 110.51245,123.85247 101.26144,113.08733 90.86984,101.3267 73.842941,82.056602 72.040272,79.674774 72.626268,77.221862 73.590751,73.184653 73.810339,73 77.646886,73 c 3.158243,0 5.698847,1.924203 24.190984,18.321769 11.36417,10.076971 21.85211,19.097591 23.30653,20.045821 3.55043,2.31474 2.77876,4.86307 -3.2511,10.73634 -5.98857,5.83305 -8.25773,6.51501 -10.46565,3.1453 z"
     style="fill:#4c4c4e" />
</svg>
