<?xml version="1.0" encoding="UTF-8" standalone="no"?>
<svg
   xmlns:dc="http://purl.org/dc/elements/1.1/"
   xmlns:cc="http://creativecommons.org/ns#"
   xmlns:rdf="http://www.w3.org/1999/02/22-rdf-syntax-ns#"
   xmlns:svg="http://www.w3.org/2000/svg"
   xmlns="http://www.w3.org/2000/svg"
   xmlns:sodipodi="http://sodipodi.sourceforge.net/DTD/sodipodi-0.dtd"
   xmlns:inkscape="http://www.inkscape.org/namespaces/inkscape"
   height="128"
   width="128"
   id="svg2870"
   version="1.1"
   inkscape:version="0.47 r22583"
   sodipodi:docname="net.fxarena.openfx.Wave.svg"
   inkscape:export-filename="/home/olear/Projects/opensource/openfx-arena/Wave/net.fxarena.openfx.Wave.png"
   inkscape:export-xdpi="90"
   inkscape:export-ydpi="90">
  <metadata
     id="metadata2878">
    <rdf:RDF>
      <cc:Work
         rdf:about="">
        <dc:format>image/svg+xml</dc:format>
        <dc:type
           rdf:resource="http://purl.org/dc/dcmitype/StillImage" />
        <dc:title></dc:title>
      </cc:Work>
    </rdf:RDF>
  </metadata>
  <defs
     id="defs2876">
    <inkscape:perspective
       sodipodi:type="inkscape:persp3d"
       inkscape:vp_x="0 : 500 : 1"
       inkscape:vp_y="0 : 1000 : 0"
       inkscape:vp_z="729 : 500 : 1"
       inkscape:persp3d-origin="364.5 : 333.33333 : 1"
       id="perspective2880" />
  </defs>
  <sodipodi:namedview
     pagecolor="#ffffff"
     bordercolor="#666666"
     borderopacity="1"
     objecttolerance="10"
     gridtolerance="10"
     guidetolerance="10"
     inkscape:pageopacity="0"
     inkscape:pageshadow="2"
     inkscape:window-width="1440"
     inkscape:window-height="849"
     id="namedview2874"
     showgrid="false"
     inkscape:zoom="1.3479231"
     inkscape:cx="29.225875"
     inkscape:cy="25.423729"
     inkscape:window-x="0"
     inkscape:window-y="25"
     inkscape:window-maximized="1"
     inkscape:current-layer="svg2870" />
  <path
     d="m 90.579638,118.19771 q -18.7051,0 -31.860345,-13.15524 -8.222026,-8.222023 -19.630081,-8.222023 -11.408063,0 -19.630089,8.222023 -2.466607,2.4666 -6.063742,2.4666 -3.5971363,0 -6.0637433,-2.4666 -2.466607,-2.46661 -2.466607,-6.063753 0,-3.59713 2.466607,-6.06374 13.1552403,-13.155236 31.7575743,-13.155236 18.602326,0 31.757566,13.155236 8.22203,8.222033 19.63008,8.222033 11.408072,0 19.630092,-8.222033 2.46661,-2.466606 6.06374,-2.466606 3.59714,0 6.06375,2.466606 2.4666,2.46661 2.4666,6.06374 0,3.597143 -2.4666,6.063753 -13.15524,13.15524 -31.654802,13.15524 z m 0,-34.326952 q -18.7051,0 -31.860345,-13.155239 -8.222026,-8.222026 -19.630081,-8.222026 -11.408063,0 -19.630089,8.222026 -2.466607,2.466607 -6.063742,2.466607 -3.5971363,0 -6.0637433,-2.466607 -2.466607,-2.466607 -2.466607,-6.063743 0,-3.597136 2.466607,-6.063743 13.1552403,-13.155239 31.7575743,-13.155239 18.602326,0 31.757566,13.155239 8.22203,8.222026 19.63008,8.222026 11.408072,0 19.630092,-8.222026 2.46661,-2.466607 6.06374,-2.466607 3.59714,0 6.06375,2.466607 2.4666,2.466607 2.4666,6.063743 0,3.597136 -2.4666,6.063743 -13.15524,13.155239 -31.654802,13.155239 z m 0,-34.326955 q -18.7051,0 -31.860345,-13.15524 -8.222026,-8.222018 -19.630081,-8.222018 -11.408063,0 -19.630089,8.222018 -2.466607,2.466615 -6.063742,2.466615 -3.5971363,0 -6.0637433,-2.466615 -2.466607,-2.466607 -2.466607,-5.96096 0,-3.494361 2.466607,-5.960968 13.1552403,-13.155239 31.7575743,-13.155239 18.602326,0 31.757566,13.155239 8.22203,8.222018 19.63008,8.222018 11.408072,0 19.630092,-8.222018 2.46661,-2.466607 6.06374,-2.466607 3.59714,0 6.06375,2.466607 2.4666,2.466607 2.4666,5.960968 0,3.494353 -2.4666,5.96096 -13.15524,13.15524 -31.654802,13.15524 z"
     id="path2872"
     style="fill:#ffffff;fill-opacity:1" />
</svg>
