<?xml version="1.0" encoding="UTF-8" standalone="no"?>
<!-- Generator: Adobe Illustrator 16.0.0, SVG Export Plug-In . SVG Version: 6.00 Build 0)  -->

<svg
   xmlns:dc="http://purl.org/dc/elements/1.1/"
   xmlns:cc="http://creativecommons.org/ns#"
   xmlns:rdf="http://www.w3.org/1999/02/22-rdf-syntax-ns#"
   xmlns:svg="http://www.w3.org/2000/svg"
   xmlns="http://www.w3.org/2000/svg"
   xmlns:sodipodi="http://sodipodi.sourceforge.net/DTD/sodipodi-0.dtd"
   xmlns:inkscape="http://www.inkscape.org/namespaces/inkscape"
   version="1.1"
   id="Capa_1"
   x="0px"
   y="0px"
   width="577.03px"
   height="577.029px"
   viewBox="0 0 577.03 577.029"
   style="enable-background:new 0 0 577.03 577.029;"
   xml:space="preserve"
   inkscape:version="0.47 r22583"
   sodipodi:docname="polaroid6.svg"><metadata
   id="metadata2929"><rdf:RDF><cc:Work
       rdf:about=""><dc:format>image/svg+xml</dc:format><dc:type
         rdf:resource="http://purl.org/dc/dcmitype/StillImage" /><dc:title></dc:title></cc:Work></rdf:RDF></metadata><defs
   id="defs2927"><inkscape:perspective
     sodipodi:type="inkscape:persp3d"
     inkscape:vp_x="0 : 288.5145 : 1"
     inkscape:vp_y="0 : 1000 : 0"
     inkscape:vp_z="577.03003 : 288.5145 : 1"
     inkscape:persp3d-origin="288.51501 : 192.343 : 1"
     id="perspective2931" /></defs><sodipodi:namedview
   pagecolor="#ffffff"
   bordercolor="#666666"
   borderopacity="1"
   objecttolerance="10"
   gridtolerance="10"
   guidetolerance="10"
   inkscape:pageopacity="0"
   inkscape:pageshadow="2"
   inkscape:window-width="1440"
   inkscape:window-height="849"
   id="namedview2925"
   showgrid="false"
   inkscape:zoom="0.40899158"
   inkscape:cx="-152.81436"
   inkscape:cy="288.5145"
   inkscape:window-x="0"
   inkscape:window-y="25"
   inkscape:window-maximized="1"
   inkscape:current-layer="Capa_1" />
<g
   id="g2891"
   style="fill:#ffffff;fill-opacity:1">
	<path
   d="M511.458,0H65.572C46.25,0,30.6,15.649,30.6,34.971v507.085c0,19.322,15.65,34.973,34.972,34.973h445.886   c19.321,0,34.972-15.65,34.972-34.973V34.971C546.429,15.649,530.779,0,511.458,0z M65.572,34.971h445.886v402.171H65.572V34.971z    M493.971,419.656H83.057V307.512c0-12.273,4.311-24.165,12.17-33.598l101.924-122.225c10.928-12.765,30.95-11.978,40.917,1.574   l116.017,157.109l59.627-62.948c10.403-10.929,27.715-10.929,38.118,0l29.744,35.172c7.999,9.469,12.396,21.463,12.396,33.87   V419.656z M380.315,126.771c0-26.579,21.507-48.086,48.085-48.086s48.086,21.507,48.086,48.086   c0,26.578-21.508,48.085-48.086,48.085S380.315,153.35,380.315,126.771z"
   id="path2893"
   style="fill:#ffffff;fill-opacity:1" />
</g>
<g
   id="g2895">
</g>
<g
   id="g2897">
</g>
<g
   id="g2899">
</g>
<g
   id="g2901">
</g>
<g
   id="g2903">
</g>
<g
   id="g2905">
</g>
<g
   id="g2907">
</g>
<g
   id="g2909">
</g>
<g
   id="g2911">
</g>
<g
   id="g2913">
</g>
<g
   id="g2915">
</g>
<g
   id="g2917">
</g>
<g
   id="g2919">
</g>
<g
   id="g2921">
</g>
<g
   id="g2923">
</g>
</svg>