<?xml version="1.0" encoding="UTF-8" standalone="no"?>
<svg
   xmlns:dc="http://purl.org/dc/elements/1.1/"
   xmlns:cc="http://creativecommons.org/ns#"
   xmlns:rdf="http://www.w3.org/1999/02/22-rdf-syntax-ns#"
   xmlns:svg="http://www.w3.org/2000/svg"
   xmlns="http://www.w3.org/2000/svg"
   xmlns:sodipodi="http://sodipodi.sourceforge.net/DTD/sodipodi-0.dtd"
   xmlns:inkscape="http://www.inkscape.org/namespaces/inkscape"
   height="48"
   viewBox="0 0 48 48"
   width="48"
   id="svg2872"
   version="1.1"
   inkscape:version="0.47 r22583"
   sodipodi:docname="net.fxarena.openfx.Texture.svg">
  <metadata
     id="metadata2882">
    <rdf:RDF>
      <cc:Work
         rdf:about="">
        <dc:format>image/svg+xml</dc:format>
        <dc:type
           rdf:resource="http://purl.org/dc/dcmitype/StillImage" />
        <dc:title></dc:title>
      </cc:Work>
    </rdf:RDF>
  </metadata>
  <defs
     id="defs2880">
    <inkscape:perspective
       sodipodi:type="inkscape:persp3d"
       inkscape:vp_x="0 : 24 : 1"
       inkscape:vp_y="0 : 1000 : 0"
       inkscape:vp_z="48 : 24 : 1"
       inkscape:persp3d-origin="24 : 16 : 1"
       id="perspective2884" />
  </defs>
  <sodipodi:namedview
     pagecolor="#ffffff"
     bordercolor="#666666"
     borderopacity="1"
     objecttolerance="10"
     gridtolerance="10"
     guidetolerance="10"
     inkscape:pageopacity="0"
     inkscape:pageshadow="2"
     inkscape:window-width="1440"
     inkscape:window-height="849"
     id="namedview2878"
     showgrid="false"
     inkscape:zoom="4.9166667"
     inkscape:cx="-12.711864"
     inkscape:cy="24"
     inkscape:window-x="0"
     inkscape:window-y="25"
     inkscape:window-maximized="1"
     inkscape:current-layer="svg2872" />
  <path
     d="M0 0h48v48h-48z"
     fill="none"
     id="path2874" />
  <path
     d="M39.02 6.15l-32.87 32.87c.18.69.53 1.31 1.02 1.8l.01.01c.49.49 1.11.84 1.8 1.02l32.87-32.87c-.37-1.38-1.45-2.46-2.83-2.83zm-15.26-.15l-17.76 17.76v5.66l23.42-23.42h-5.66zm-13.76 0c-2.2 0-4 1.8-4 4v4.01l8.01-8.01h-4.01zm28 36c1.1 0 2.1-.45 2.82-1.17.73-.73 1.18-1.73 1.18-2.83v-4.01l-8.01 8.01h4.01zm-19.42 0h5.66l17.76-17.76v-5.66l-23.42 23.42z"
     id="path2876"
     style="stroke:none;stroke-opacity:1;fill:#ffffff;fill-opacity:1"
     inkscape:export-filename="/home/olear/Projects/opensource/openfx-arena/Texture/net.fxarena.openfx.Texture.png"
     inkscape:export-xdpi="320"
     inkscape:export-ydpi="320" />
</svg>
