<?xml version="1.0" encoding="UTF-8" standalone="no"?>
<svg
   xmlns:dc="http://purl.org/dc/elements/1.1/"
   xmlns:cc="http://creativecommons.org/ns#"
   xmlns:rdf="http://www.w3.org/1999/02/22-rdf-syntax-ns#"
   xmlns:svg="http://www.w3.org/2000/svg"
   xmlns="http://www.w3.org/2000/svg"
   xmlns:sodipodi="http://sodipodi.sourceforge.net/DTD/sodipodi-0.dtd"
   xmlns:inkscape="http://www.inkscape.org/namespaces/inkscape"
   width="100%"
   height="100%"
   viewBox="0 0 512 512"
   version="1.1"
   xml:space="preserve"
   style="fill-rule:evenodd;clip-rule:evenodd;stroke-linejoin:round;stroke-miterlimit:1.41421;"
   id="svg3148"
   inkscape:version="0.48.4 r9939"
   sodipodi:docname="Extra.svg"
   inkscape:export-filename="/home/olear/Projects/openfx-arena/Bundle/Extra.png"
   inkscape:export-xdpi="22.5"
   inkscape:export-ydpi="22.5"><metadata
     id="metadata3163"><rdf:RDF><cc:Work
         rdf:about=""><dc:format>image/svg+xml</dc:format><dc:type
           rdf:resource="http://purl.org/dc/dcmitype/StillImage" /><dc:title></dc:title></cc:Work></rdf:RDF></metadata><defs
     id="defs3161" /><sodipodi:namedview
     pagecolor="#ffffff"
     bordercolor="#666666"
     borderopacity="1"
     objecttolerance="10"
     gridtolerance="10"
     guidetolerance="10"
     inkscape:pageopacity="0"
     inkscape:pageshadow="2"
     inkscape:window-width="1366"
     inkscape:window-height="721"
     id="namedview3159"
     showgrid="false"
     inkscape:zoom="0.74853882"
     inkscape:cx="395.70479"
     inkscape:cy="330.34971"
     inkscape:window-x="0"
     inkscape:window-y="-3"
     inkscape:window-maximized="1"
     inkscape:current-layer="svg3148" /><path
     inkscape:connector-curvature="0"
     id="path3157"
     style="fill:#4d4d4d"
     d="m 364.515,472.38 -216.816,-0.12 -0.227,-10e-4 -0.259,-0.005 -0.259,-0.007 -0.257,-0.01 -0.256,-0.012 -0.255,-0.015 -0.253,-0.018 -0.252,-0.02 -0.25,-0.023 -0.251,-0.025 -0.248,-0.027 -0.247,-0.029 -0.247,-0.032 -0.243,-0.034 -0.244,-0.036 -0.243,-0.038 -0.241,-0.04 -0.239,-0.043 -0.241,-0.044 -0.237,-0.046 -0.236,-0.048 -0.237,-0.05 -0.235,-0.052 -0.234,-0.054 -0.232,-0.056 -0.231,-0.057 -0.232,-0.059 -0.228,-0.061 -0.229,-0.062 -0.228,-0.065 -0.226,-0.065 -0.226,-0.068 -0.225,-0.069 -0.224,-0.071 -0.223,-0.072 -0.223,-0.075 -0.22,-0.075 -0.22,-0.077 -0.22,-0.079 -0.217,-0.079 -0.218,-0.082 -0.217,-0.083 -0.216,-0.085 -0.215,-0.086 -0.214,-0.087 -0.214,-0.089 -0.212,-0.091 -0.211,-0.091 -0.211,-0.094 -0.21,-0.094 -0.209,-0.096 -0.209,-0.097 -0.207,-0.099 -0.208,-0.101 -0.206,-0.101 -0.204,-0.103 -0.204,-0.104 -0.204,-0.106 -0.203,-0.107 -0.202,-0.108 -0.202,-0.11 -0.199,-0.111 -0.2,-0.112 -0.2,-0.114 -0.198,-0.116 -0.197,-0.116 -0.196,-0.117 -0.196,-0.12 -0.195,-0.121 -0.195,-0.122 -0.193,-0.123 -0.192,-0.124 -0.192,-0.126 -0.192,-0.128 -0.19,-0.129 -0.189,-0.129 -0.189,-0.132 -0.188,-0.133 -0.186,-0.134 -0.187,-0.137 -0.185,-0.136 -0.185,-0.139 -0.183,-0.14 -0.184,-0.142 -0.182,-0.143 -0.181,-0.144 -0.18,-0.146 -0.18,-0.147 -0.178,-0.149 -0.178,-0.15 -0.178,-0.153 -0.176,-0.153 -0.174,-0.155 -0.175,-0.157 -0.173,-0.158 -0.173,-0.16 -0.171,-0.161 -0.171,-0.163 -0.169,-0.165 -0.168,-0.166 -0.168,-0.168 -0.167,-0.171 -0.166,-0.171 -0.165,-0.174 -0.163,-0.175 -0.162,-0.177 -0.162,-0.179 -0.16,-0.181 -0.159,-0.182 -0.158,-0.185 -0.157,-0.187 -0.156,-0.188 -0.154,-0.19 -0.153,-0.193 -0.152,-0.195 -0.151,-0.197 -0.15,-0.2 -0.148,-0.2 -0.146,-0.203 -0.145,-0.206 -0.144,-0.208 -0.142,-0.211 -0.14,-0.212 -0.139,-0.215 -0.138,-0.217 -0.136,-0.221 -0.133,-0.222 -0.116,-0.197 -108.491,-187.139 -0.113,-0.198 -0.127,-0.227 -0.124,-0.227 -0.121,-0.228 -0.118,-0.228 -0.114,-0.228 -0.112,-0.228 -0.11,-0.229 -0.106,-0.229 -0.104,-0.228 -0.101,-0.229 -0.099,-0.229 -0.096,-0.229 -0.094,-0.229 -0.091,-0.23 -0.089,-0.229 -0.086,-0.229 -0.084,-0.23 -0.082,-0.229 -0.079,-0.23 -0.077,-0.229 -0.076,-0.229 -0.072,-0.23 -0.071,-0.229 -0.069,-0.23 -0.066,-0.229 -0.065,-0.23 -0.062,-0.229 -0.061,-0.23 -0.058,-0.229 -0.057,-0.23 -0.055,-0.23 -0.053,-0.229 -0.051,-0.23 -0.049,-0.229 -0.047,-0.23 -0.045,-0.229 -0.044,-0.23 -0.042,-0.229 -0.04,-0.23 -0.038,-0.229 -0.037,-0.23 -0.035,-0.229 -0.033,-0.23 -0.032,-0.229 -0.029,-0.23 -0.029,-0.229 -0.026,-0.23 -0.025,-0.229 -0.023,-0.229 -0.022,-0.23 -0.02,-0.229 -0.018,-0.23 -0.017,-0.229 -0.015,-0.23 -0.013,-0.229 -0.012,-0.23 -0.011,-0.229 -0.008,-0.23 -0.007,-0.229 -0.006,-0.229 -0.004,-0.23 -0.002,-0.229 -10e-4,-0.23 0,-0.229 0.003,-0.23 0.004,-0.229 0.005,-0.23 0.007,-0.229 0.009,-0.23 0.01,-0.229 0.012,-0.23 0.013,-0.229 0.015,-0.229 0.017,-0.23 0.018,-0.229 0.02,-0.23 0.021,-0.229 0.023,-0.23 0.025,-0.229 0.026,-0.23 0.028,-0.229 0.03,-0.23 0.031,-0.229 0.033,-0.23 0.035,-0.229 0.037,-0.23 0.038,-0.229 0.04,-0.23 0.042,-0.229 0.043,-0.23 0.045,-0.229 0.048,-0.23 0.049,-0.229 0.05,-0.23 0.053,-0.229 0.055,-0.23 0.056,-0.23 0.058,-0.229 0.061,-0.23 0.062,-0.229 0.065,-0.23 0.066,-0.229 0.069,-0.23 0.07,-0.23 0.073,-0.229 0.075,-0.229 0.077,-0.23 0.079,-0.23 0.082,-0.229 0.084,-0.229 0.086,-0.23 0.088,-0.229 0.092,-0.229 0.093,-0.229 0.096,-0.229 0.098,-0.229 0.101,-0.229 0.104,-0.229 0.107,-0.229 0.109,-0.228 0.112,-0.229 0.114,-0.228 0.118,-0.228 0.121,-0.228 0.123,-0.227 0.127,-0.227 0.113,-0.198 108.272,-187.001 0.115,-0.196 0.134,-0.223 0.136,-0.22 0.137,-0.218 0.139,-0.215 0.14,-0.213 0.143,-0.211 0.143,-0.208 0.145,-0.206 0.147,-0.204 0.148,-0.201 0.149,-0.2 0.151,-0.197 0.152,-0.195 0.153,-0.193 0.155,-0.191 0.155,-0.188 0.157,-0.187 0.159,-0.185 0.159,-0.183 0.16,-0.181 0.161,-0.179 0.163,-0.177 0.164,-0.176 0.164,-0.174 0.166,-0.171 0.167,-0.171 0.167,-0.168 0.169,-0.166 0.17,-0.166 0.17,-0.163 0.172,-0.161 0.172,-0.16 0.174,-0.159 0.174,-0.156 0.175,-0.156 0.177,-0.153 0.177,-0.152 0.178,-0.151 0.179,-0.149 0.179,-0.147 0.18,-0.146 0.182,-0.145 0.183,-0.143 0.182,-0.141 0.184,-0.141 0.185,-0.138 0.186,-0.138 0.186,-0.135 0.187,-0.135 0.188,-0.133 0.189,-0.131 0.189,-0.131 0.191,-0.128 0.191,-0.128 0.192,-0.126 0.193,-0.125 0.193,-0.123 0.194,-0.122 0.196,-0.12 0.196,-0.12 0.196,-0.117 0.198,-0.117 0.198,-0.115 0.199,-0.114 0.2,-0.112 0.2,-0.111 0.202,-0.11 0.202,-0.108 0.203,-0.107 0.204,-0.106 0.205,-0.104 0.205,-0.103 0.205,-0.102 0.207,-0.1 0.208,-0.098 0.209,-0.098 0.209,-0.096 0.21,-0.094 0.211,-0.093 0.212,-0.092 0.213,-0.09 0.213,-0.089 0.214,-0.087 0.216,-0.086 0.215,-0.085 0.217,-0.083 0.218,-0.081 0.219,-0.08 0.219,-0.079 0.221,-0.077 0.221,-0.075 0.222,-0.074 0.223,-0.072 0.224,-0.071 0.225,-0.069 0.226,-0.067 0.226,-0.066 0.228,-0.064 0.229,-0.062 0.23,-0.061 0.231,-0.059 0.231,-0.057 0.233,-0.056 0.234,-0.053 0.235,-0.052 0.236,-0.05 0.237,-0.048 0.238,-0.046 0.239,-0.044 0.24,-0.042 0.242,-0.04 0.242,-0.038 0.244,-0.036 0.245,-0.033 0.246,-0.032 0.247,-0.029 0.249,-0.027 0.25,-0.025 0.251,-0.022 0.252,-0.02 0.253,-0.017 0.255,-0.015 0.256,-0.012 0.257,-0.01 0.258,-0.007 0.26,-0.004 0.228,-10e-4 216.815,0.121 0.228,0.001 0.259,0.005 0.258,0.007 0.258,0.01 0.255,0.012 0.255,0.015 0.253,0.018 0.252,0.02 0.251,0.023 0.249,0.024 0.249,0.028 0.247,0.029 0.246,0.032 0.244,0.034 0.244,0.036 0.243,0.038 0.241,0.04 0.24,0.042 0.239,0.045 0.238,0.046 0.237,0.048 0.236,0.05 0.234,0.052 0.234,0.054 0.233,0.055 0.231,0.057 0.231,0.06 0.229,0.06 0.229,0.063 0.227,0.064 0.227,0.066 0.226,0.067 0.225,0.07 0.223,0.07 0.223,0.073 0.222,0.073 0.221,0.076 0.221,0.077 0.219,0.079 0.218,0.08 0.218,0.081 0.217,0.083 0.215,0.085 0.215,0.086 0.215,0.087 0.213,0.089 0.212,0.09 0.212,0.092 0.211,0.093 0.21,0.095 0.209,0.096 0.209,0.097 0.207,0.099 0.207,0.1 0.206,0.101 0.205,0.103 0.204,0.105 0.204,0.105 0.203,0.107 0.202,0.109 0.201,0.109 0.2,0.111 0.2,0.113 0.2,0.114 0.197,0.114 0.198,0.117 0.197,0.118 0.195,0.119 0.195,0.121 0.195,0.122 0.193,0.123 0.192,0.124 0.192,0.126 0.191,0.128 0.191,0.129 0.189,0.13 0.189,0.131 0.188,0.134 0.187,0.133 0.186,0.136 0.186,0.138 0.184,0.138 0.184,0.14 0.184,0.142 0.182,0.143 0.18,0.144 0.181,0.146 0.18,0.148 0.179,0.148 0.177,0.15 0.177,0.152 0.177,0.154 0.175,0.155 0.174,0.157 0.173,0.158 0.173,0.16 0.172,0.162 0.17,0.162 0.169,0.165 0.169,0.167 0.167,0.167 0.167,0.171 0.167,0.172 0.164,0.174 0.163,0.174 0.162,0.177 0.162,0.179 0.161,0.182 0.159,0.183 0.158,0.184 0.157,0.186 0.155,0.189 0.155,0.191 0.153,0.192 0.152,0.195 0.151,0.197 0.15,0.2 0.147,0.2 0.146,0.203 0.147,0.207 0.143,0.208 0.142,0.209 0.141,0.214 0.138,0.214 0.138,0.218 0.136,0.221 0.134,0.222 0.115,0.196 108.492,187.14 0.113,0.198 0.126,0.225 0.123,0.228 0.122,0.228 0.117,0.228 0.115,0.228 0.113,0.229 0.109,0.229 0.106,0.227 0.104,0.23 0.101,0.228 0.099,0.229 0.096,0.23 0.094,0.229 0.09,0.228 0.089,0.229 0.087,0.23 0.084,0.23 0.082,0.229 0.079,0.228 0.077,0.231 0.075,0.229 0.073,0.229 0.071,0.23 0.068,0.229 0.067,0.231 0.065,0.229 0.062,0.229 0.061,0.229 0.058,0.23 0.057,0.23 0.055,0.23 0.052,0.228 0.051,0.23 0.05,0.231 0.047,0.228 0.045,0.229 0.044,0.231 0.042,0.229 0.04,0.229 0.038,0.229 0.037,0.23 0.035,0.23 0.033,0.23 0.031,0.229 0.03,0.229 0.028,0.229 0.027,0.231 0.025,0.229 0.023,0.228 0.021,0.231 0.02,0.23 0.019,0.228 0.016,0.229 0.016,0.231 0.013,0.229 0.012,0.229 0.01,0.229 0.009,0.23 0.007,0.23 0.006,0.229 0.004,0.23 0.002,0.229 0.001,0.229 -0.001,0.229 -0.002,0.231 -0.004,0.229 -0.005,0.229 -0.007,0.231 -0.009,0.228 -0.01,0.229 -0.012,0.23 -0.013,0.23 -0.015,0.229 -0.017,0.229 -0.018,0.23 -0.02,0.23 -0.021,0.228 -0.023,0.23 -0.025,0.231 -0.026,0.228 -0.028,0.229 -0.03,0.23 -0.032,0.23 -0.033,0.229 -0.035,0.23 -0.036,0.23 -0.038,0.228 -0.04,0.23 -0.042,0.23 -0.043,0.229 -0.046,0.23 -0.047,0.23 -0.049,0.228 -0.051,0.23 -0.053,0.231 -0.054,0.228 -0.056,0.229 -0.059,0.231 -0.06,0.229 -0.062,0.229 -0.065,0.23 -0.066,0.229 -0.069,0.231 -0.07,0.229 -0.073,0.229 -0.075,0.23 -0.077,0.23 -0.08,0.229 -0.081,0.229 -0.084,0.23 -0.086,0.228 -0.089,0.23 -0.091,0.23 -0.093,0.229 -0.096,0.229 -0.098,0.228 -0.102,0.229 -0.104,0.23 -0.106,0.228 -0.109,0.228 -0.112,0.229 -0.115,0.228 -0.117,0.227 -0.12,0.228 -0.125,0.228 -0.126,0.227 -0.113,0.198 -108.273,187.002 -0.115,0.197 -0.134,0.224 -0.136,0.22 -0.137,0.217 -0.139,0.215 -0.141,0.213 -0.142,0.212 -0.144,0.208 -0.145,0.205 -0.146,0.203 -0.148,0.202 -0.15,0.2 -0.151,0.197 -0.151,0.195 -0.153,0.193 -0.155,0.191 -0.155,0.188 -0.157,0.187 -0.159,0.185 -0.159,0.183 -0.16,0.18 -0.161,0.18 -0.163,0.177 -0.164,0.176 -0.165,0.174 -0.165,0.171 -0.167,0.17 -0.167,0.168 -0.169,0.167 -0.17,0.165 -0.171,0.164 -0.171,0.161 -0.173,0.16 -0.173,0.158 -0.174,0.157 -0.176,0.156 -0.176,0.152 -0.177,0.153 -0.178,0.15 -0.179,0.149 -0.18,0.148 -0.18,0.145 -0.182,0.145 -0.182,0.143 -0.183,0.142 -0.184,0.14 -0.185,0.139 -0.184,0.136 -0.187,0.137 -0.187,0.134 -0.188,0.133 -0.189,0.131 -0.19,0.131 -0.19,0.129 -0.191,0.127 -0.193,0.127 -0.192,0.124 -0.193,0.123 -0.195,0.122 -0.196,0.121 -0.195,0.119 -0.196,0.118 -0.199,0.117 -0.197,0.114 -0.198,0.114 -0.201,0.113 -0.201,0.111 -0.201,0.109 -0.202,0.109 -0.203,0.107 -0.203,0.105 -0.206,0.105 -0.205,0.102 -0.206,0.102 -0.208,0.1 -0.206,0.098 -0.209,0.098 -0.21,0.096 -0.209,0.094 -0.212,0.094 -0.211,0.091 -0.213,0.09 -0.214,0.089 -0.213,0.087 -0.216,0.086 -0.216,0.085 -0.217,0.083 -0.217,0.081 -0.219,0.08 -0.22,0.079 -0.219,0.076 -0.222,0.076 -0.223,0.074 -0.221,0.072 -0.224,0.07 -0.226,0.07 -0.227,0.067 -0.226,0.066 -0.227,0.064 -0.23,0.062 -0.229,0.061 -0.231,0.059 -0.231,0.057 -0.232,0.055 -0.235,0.054 -0.236,0.052 -0.235,0.05 -0.237,0.048 -0.238,0.046 -0.239,0.044 -0.24,0.042 -0.241,0.04 -0.244,0.038 -0.244,0.036 -0.244,0.033 -0.246,0.032 -0.248,0.029 -0.248,0.027 -0.249,0.025 -0.252,0.022 -0.251,0.02 -0.254,0.017 -0.256,0.015 -0.254,0.012 -0.258,0.01 -0.259,0.007 -0.259,0.004 -0.228,10e-4 z m -0.053,-24 0.03,0 0,0 0.002,0 0.002,0 0.007,-10e-4 0.007,0 0.01,-0.001 0.012,-10e-4 0.013,-0.001 0.016,-10e-4 0.017,-0.002 0.02,-0.003 0.02,-0.002 0.023,-0.003 0.025,-0.004 0.024,-0.004 0.028,-0.004 0.029,-0.006 0.031,-0.005 0.032,-0.006 0.033,-0.007 0.035,-0.008 0.036,-0.007 0.036,-0.009 0.039,-0.009 0.04,-0.01 0.042,-0.01 0.041,-0.011 0.043,-0.012 0.045,-0.013 0.045,-0.013 0.045,-0.013 0.046,-0.014 0.048,-0.016 0.05,-0.016 0.049,-0.016 0.049,-0.017 0.053,-0.018 0.05,-0.018 0.052,-0.019 0.053,-0.02 0.053,-0.02 0.054,-0.021 0.054,-0.022 0.055,-0.022 0.055,-0.023 0.055,-0.024 0.057,-0.024 0.055,-0.024 0.057,-0.026 0.056,-0.026 0.057,-0.026 0.058,-0.028 0.055,-0.027 0.058,-0.028 0.057,-0.029 0.057,-0.029 0.058,-0.03 0.057,-0.03 0.056,-0.03 0.058,-0.032 0.057,-0.031 0.056,-0.031 0.057,-0.033 0.057,-0.033 0.055,-0.033 0.056,-0.033 0.057,-0.035 0.054,-0.033 0.054,-0.034 0.055,-0.035 0.054,-0.035 0.054,-0.035 0.053,-0.035 0.052,-0.036 0.052,-0.035 0.051,-0.036 0.051,-0.036 0.05,-0.036 0.049,-0.036 0.05,-0.037 0.048,-0.036 0.047,-0.036 0.047,-0.036 0.046,-0.036 0.045,-0.036 0.044,-0.036 0.044,-0.036 0.042,-0.035 0.042,-0.035 0.04,-0.035 0.041,-0.036 0.038,-0.033 0.039,-0.035 0.037,-0.034 0.036,-0.033 0.035,-0.033 0.033,-0.032 0.033,-0.032 0.032,-0.031 0.03,-0.031 0.03,-0.031 0.029,-0.029 0.027,-0.029 0.026,-0.028 0.025,-0.026 0.023,-0.027 0.024,-0.026 0.021,-0.024 0.019,-0.023 0.019,-0.023 0.019,-0.022 0.016,-0.02 0.015,-0.019 0.015,-0.019 0.012,-0.016 0.011,-0.015 0.01,-0.014 0.01,-0.013 0.008,-0.012 0.007,-0.009 0.005,-0.008 0.004,-0.006 0.003,-0.005 0.003,-0.004 0,0 0.015,-0.026 108.207,-186.889 0.015,-0.026 10e-4,-0.003 0.003,-0.006 0.004,-0.006 0.003,-0.008 0.006,-0.011 0.005,-0.012 0.006,-0.013 0.007,-0.016 0.008,-0.018 0.008,-0.019 0.008,-0.021 0.009,-0.022 0.009,-0.023 0.01,-0.027 0.01,-0.026 0.01,-0.03 0.011,-0.03 0.01,-0.032 0.011,-0.033 0.011,-0.035 0.011,-0.036 0.011,-0.037 0.012,-0.039 0.011,-0.04 0.011,-0.042 0.012,-0.043 0.011,-0.043 0.011,-0.045 0.011,-0.048 0.011,-0.046 0.01,-0.047 0.011,-0.051 0.01,-0.051 0.01,-0.051 0.01,-0.052 0.01,-0.054 0.009,-0.053 0.01,-0.056 0.009,-0.056 0.008,-0.056 0.008,-0.057 0.008,-0.058 0.008,-0.058 0.007,-0.06 0.007,-0.061 0.006,-0.059 0.007,-0.06 0.005,-0.063 0.006,-0.062 0.005,-0.062 0.004,-0.063 0.004,-0.063 0.004,-0.063 0.003,-0.063 0.003,-0.064 0.003,-0.066 10e-4,-0.063 0.002,-0.064 10e-4,-0.065 0.001,-0.064 0,-0.065 0,-0.064 -0.001,-0.065 -10e-4,-0.065 -0.002,-0.064 -0.002,-0.064 -0.002,-0.064 -0.003,-0.064 -0.003,-0.064 -0.004,-0.063 -0.004,-0.062 -0.005,-0.063 -0.005,-0.064 -0.005,-0.061 -0.006,-0.06 -0.006,-0.063 -0.007,-0.06 -0.006,-0.059 -0.008,-0.06 -0.007,-0.058 -0.008,-0.059 -0.009,-0.057 -0.008,-0.056 -0.009,-0.056 -0.009,-0.055 -0.01,-0.054 -0.01,-0.054 -0.009,-0.051 -0.011,-0.052 -0.01,-0.051 -0.011,-0.049 -0.01,-0.047 -0.011,-0.049 -0.011,-0.047 -0.011,-0.043 -0.011,-0.044 -0.012,-0.043 -0.011,-0.042 -0.011,-0.04 -0.011,-0.038 -0.012,-0.038 -0.011,-0.036 -0.011,-0.035 -0.011,-0.034 -0.01,-0.03 -0.011,-0.032 -0.011,-0.029 -0.009,-0.026 -0.009,-0.025 -0.01,-0.024 -0.009,-0.024 -0.009,-0.021 -0.007,-0.018 -0.008,-0.017 -0.007,-0.016 -0.006,-0.013 -0.006,-0.013 -0.005,-0.011 -0.004,-0.007 -0.003,-0.007 -0.003,-0.005 -0.001,-0.002 0,-10e-4 -10e-4,-0.001 -0.015,-0.026 -108.424,-187.024 -0.016,-0.026 0,0 0,-0.001 -0.002,-0.003 -0.003,-0.006 -0.004,-0.006 -0.006,-0.008 -0.008,-0.011 -0.007,-0.01 -0.009,-0.013 -0.011,-0.015 -0.011,-0.015 -0.013,-0.017 -0.014,-0.017 -0.016,-0.02 -0.016,-0.02 -0.018,-0.022 -0.019,-0.023 -0.021,-0.024 -0.021,-0.025 -0.022,-0.024 -0.024,-0.027 -0.026,-0.028 -0.026,-0.028 -0.028,-0.029 -0.027,-0.029 -0.03,-0.03 -0.031,-0.032 -0.032,-0.031 -0.033,-0.032 -0.035,-0.033 -0.035,-0.033 -0.035,-0.033 -0.037,-0.034 -0.039,-0.035 -0.039,-0.034 -0.04,-0.034 -0.041,-0.036 -0.042,-0.036 -0.043,-0.035 -0.043,-0.036 -0.045,-0.036 -0.046,-0.036 -0.046,-0.037 -0.046,-0.035 -0.048,-0.037 -0.048,-0.036 -0.049,-0.036 -0.05,-0.036 -0.051,-0.037 -0.05,-0.036 -0.052,-0.036 -0.052,-0.036 -0.052,-0.035 -0.054,-0.035 -0.053,-0.036 -0.055,-0.035 -0.054,-0.035 -0.055,-0.034 -0.055,-0.034 -0.056,-0.034 -0.056,-0.034 -0.056,-0.033 -0.057,-0.033 -0.057,-0.032 -0.056,-0.032 -0.057,-0.032 -0.058,-0.031 -0.057,-0.031 -0.057,-0.03 -0.058,-0.03 -0.057,-0.029 -0.057,-0.029 -0.058,-0.028 -0.057,-0.028 -0.057,-0.027 -0.057,-0.027 -0.057,-0.026 -0.057,-0.025 -0.056,-0.025 -0.055,-0.024 -0.057,-0.024 -0.055,-0.023 -0.055,-0.022 -0.054,-0.022 -0.054,-0.021 -0.053,-0.021 -0.053,-0.019 -0.052,-0.02 -0.052,-0.018 -0.051,-0.018 -0.05,-0.017 -0.05,-0.017 -0.049,-0.015 -0.048,-0.016 -0.047,-0.014 -0.046,-0.014 -0.045,-0.013 -0.044,-0.012 -0.044,-0.012 -0.042,-0.012 -0.041,-0.01 -0.04,-0.01 -0.038,-0.009 -0.038,-0.009 -0.036,-0.008 -0.035,-0.007 -0.034,-0.007 -0.032,-0.006 -0.031,-0.006 -0.029,-0.005 -0.028,-0.005 -0.026,-0.004 -0.024,-0.003 -0.023,-0.004 -0.021,-0.002 -0.019,-0.003 -0.017,-0.001 -0.016,-0.002 -0.014,-0.001 -0.012,-10e-4 -0.01,-10e-4 -0.008,0 -0.006,-0.001 -0.003,0 -0.002,0 -0.03,0 -216.683,-0.121 -0.03,0 -0.001,0 -0.004,0 -0.006,10e-4 -0.008,0 -0.009,10e-4 -0.012,0.001 -0.014,10e-4 -0.015,10e-4 -0.017,0.002 -0.019,0.003 -0.021,0.002 -0.023,0.003 -0.024,0.004 -0.026,0.004 -0.027,0.004 -0.029,0.006 -0.031,0.005 -0.032,0.006 -0.033,0.007 -0.035,0.007 -0.036,0.008 -0.037,0.009 -0.039,0.009 -0.04,0.01 -0.04,0.01 -0.042,0.011 -0.043,0.012 -0.044,0.012 -0.045,0.014 -0.046,0.013 -0.047,0.015 -0.048,0.015 -0.049,0.015 -0.049,0.017 -0.05,0.017 -0.051,0.018 -0.051,0.018 -0.052,0.019 -0.053,0.02 -0.053,0.02 -0.054,0.021 -0.054,0.022 -0.055,0.022 -0.055,0.023 -0.055,0.024 -0.056,0.024 -0.056,0.024 -0.056,0.026 -0.057,0.026 -0.057,0.026 -0.057,0.027 -0.057,0.028 -0.057,0.028 -0.057,0.029 -0.057,0.029 -0.058,0.029 -0.057,0.03 -0.057,0.031 -0.057,0.031 -0.057,0.032 -0.056,0.032 -0.057,0.032 -0.056,0.033 -0.056,0.033 -0.056,0.033 -0.055,0.034 -0.056,0.034 -0.054,0.034 -0.055,0.035 -0.054,0.035 -0.053,0.035 -0.053,0.035 -0.052,0.036 -0.052,0.035 -0.052,0.036 -0.051,0.036 -0.05,0.036 -0.049,0.036 -0.049,0.036 -0.048,0.036 -0.048,0.037 -0.046,0.036 -0.046,0.036 -0.045,0.035 -0.045,0.037 -0.043,0.035 -0.043,0.036 -0.041,0.035 -0.041,0.035 -0.04,0.035 -0.039,0.034 -0.038,0.034 -0.037,0.034 -0.036,0.033 -0.035,0.033 -0.034,0.033 -0.032,0.031 -0.032,0.032 -0.031,0.031 -0.029,0.03 -0.029,0.029 -0.027,0.029 -0.026,0.028 -0.025,0.027 -0.023,0.026 -0.023,0.026 -0.022,0.024 -0.019,0.023 -0.019,0.023 -0.018,0.022 -0.016,0.02 -0.016,0.019 -0.014,0.018 -0.012,0.017 -0.012,0.015 -0.01,0.014 -0.009,0.013 -0.008,0.011 -0.007,0.01 -0.005,0.007 -0.004,0.007 -0.004,0.005 -0.001,0.003 -0.001,0.001 -0.016,0.026 -108.207,186.889 -0.015,0.026 0,0.001 -0.002,0.003 -0.002,0.004 -0.004,0.007 -0.004,0.009 -0.005,0.01 -0.005,0.012 -0.007,0.014 -0.006,0.015 -0.008,0.018 -0.008,0.019 -0.008,0.021 -0.009,0.022 -0.01,0.024 -0.009,0.025 -0.01,0.028 -0.01,0.029 -0.011,0.03 -0.011,0.032 -0.01,0.033 -0.011,0.035 -0.012,0.036 -0.011,0.037 -0.011,0.039 -0.011,0.04 -0.011,0.042 -0.012,0.043 -0.011,0.044 -0.011,0.045 -0.011,0.046 -0.011,0.047 -0.011,0.049 -0.01,0.049 -0.01,0.05 -0.011,0.052 -0.01,0.052 -0.009,0.054 -0.01,0.054 -0.009,0.055 -0.009,0.056 -0.008,0.056 -0.009,0.057 -0.007,0.058 -0.008,0.059 -0.007,0.059 -0.007,0.06 -0.007,0.061 -0.006,0.061 -0.006,0.061 -0.005,0.062 -0.005,0.062 -0.004,0.063 -0.004,0.063 -0.004,0.063 -0.003,0.064 -0.003,0.064 -0.003,0.064 -0.002,0.064 -10e-4,0.065 -10e-4,0.064 -0.001,0.065 0,0.064 0,0.065 0.001,0.065 10e-4,0.064 10e-4,0.064 0.002,0.065 0.003,0.064 0.003,0.064 0.003,0.063 0.004,0.064 0.004,0.063 0.005,0.062 0.005,0.063 0.005,0.062 0.006,0.061 0.006,0.061 0.006,0.06 0.007,0.06 0.008,0.06 0.007,0.058 0.008,0.058 0.008,0.057 0.009,0.057 0.009,0.056 0.009,0.055 0.01,0.054 0.009,0.053 0.01,0.052 0.01,0.052 0.011,0.051 0.01,0.049 0.011,0.048 0.011,0.048 0.011,0.046 0.011,0.045 0.011,0.044 0.012,0.042 0.011,0.042 0.011,0.04 0.012,0.039 0.011,0.037 0.011,0.036 0.011,0.035 0.011,0.033 0.01,0.032 0.011,0.03 0.01,0.029 0.01,0.027 0.01,0.026 0.009,0.024 0.009,0.022 0.008,0.021 0.008,0.019 0.008,0.017 0.007,0.016 0.006,0.014 0.01,0.022 0.012,0.023 0.015,0.026 108.425,187.025 0.015,0.026 0.01,0.016 0.012,0.017 0.008,0.011 0.01,0.014 0.011,0.015 0.011,0.014 0.013,0.017 0.014,0.018 0.015,0.02 0.017,0.02 0.018,0.022 0.019,0.023 0.02,0.023 0.022,0.025 0.023,0.026 0.023,0.026 0.026,0.028 0.026,0.028 0.027,0.029 0.029,0.029 0.029,0.03 0.031,0.031 0.032,0.032 0.034,0.032 0.034,0.033 0.035,0.033 0.036,0.034 0.037,0.033 0.038,0.034 0.039,0.035 0.041,0.035 0.04,0.035 0.042,0.036 0.043,0.035 0.044,0.036 0.044,0.036 0.046,0.037 0.046,0.036 0.047,0.036 0.047,0.036 0.048,0.036 0.05,0.037 0.049,0.036 0.051,0.037 0.051,0.035 0.051,0.036 0.053,0.036 0.053,0.036 0.052,0.035 0.053,0.035 0.055,0.036 0.055,0.035 0.055,0.034 0.055,0.034 0.055,0.034 0.057,0.034 0.057,0.033 0.056,0.033 0.056,0.032 0.057,0.032 0.057,0.032 0.058,0.031 0.057,0.031 0.057,0.03 0.057,0.03 0.058,0.029 0.058,0.029 0.057,0.028 0.056,0.028 0.058,0.027 0.057,0.027 0.057,0.026 0.056,0.025 0.057,0.025 0.056,0.025 0.055,0.023 0.055,0.023 0.055,0.022 0.054,0.022 0.055,0.021 0.053,0.021 0.052,0.019 0.053,0.02 0.051,0.018 0.052,0.018 0.051,0.018 0.048,0.016 0.049,0.015 0.048,0.016 0.047,0.014 0.046,0.014 0.046,0.013 0.043,0.013 0.044,0.011 0.043,0.012 0.04,0.01 0.04,0.01 0.039,0.009 0.038,0.009 0.036,0.008 0.033,0.007 0.035,0.007 0.033,0.006 0.029,0.006 0.029,0.005 0.028,0.005 0.026,0.004 0.024,0.003 0.024,0.004 0.02,0.002 0.019,0.003 0.018,0.002 0.015,10e-4 0.026,0.002 0.029,0.002 0.031,0 216.682,0.12 z" /><path
     sodipodi:type="star"
     style="fill:#bfad71;fill-opacity:1;stroke:none"
     id="path4154"
     sodipodi:sides="5"
     sodipodi:cx="-236.46068"
     sodipodi:cy="72.477036"
     sodipodi:r1="175.80127"
     sodipodi:r2="87.900635"
     sodipodi:arg1="1.3719105"
     sodipodi:arg2="2.000229"
     inkscape:flatsided="false"
     inkscape:rounded="0.65"
     inkscape:randomized="0"
     d="m -201.72635,244.81279 c -74.38745,14.99282 -2.33894,-60.82191 -71.3322,-92.41631 -68.99327,-31.59441 -79.32367,72.48318 -116.56967,6.36954 -37.24601,-66.113628 57.1223,-21.01946 65.85027,-96.399165 8.72797,-75.379706 -93.44796,-53.0427552 -42.07981,-108.896047 51.36816,-55.853288 37.64246,47.831166 112.02991,32.83835 74.38746,-14.992816 21.56965,-105.265408 90.56292,-73.671005 68.993272,31.594401 -33.85798,50.580752 3.38802,116.694386 37.24601,66.113636 106.778743,-12.014844 98.050774,63.364863 -8.727969,75.379708 -58.567844,-16.570543 -109.936004,39.282748 -51.36815,55.85329 44.42324,97.83982 -29.96421,112.83264 z"
     inkscape:transform-center-x="-8.7242011"
     inkscape:transform-center-y="5.0787355"
     transform="matrix(0.81280143,0,0,0.81280143,450.6265,190.80544)" /></svg>